# xmcd
#
# Track frame offsets: 
#        150
#        20293
#        35311
#        53537
#        73924
#        99813
#        127144
#        143918
#        164760
#        185414
#        209228
#        231350
#        253991
#
# Disc length: 3642 seconds
#
# Revision: 1
# Processed by: cddbd v1.5.2PL0 Copyright (c) Steve Scherf et al.
# Submitted via: ExactAudioCopy v1.3
#
DISCID=c40e380d
DTITLE=江智民 - 精品男人DTS
DYEAR=2010
DGENRE=Acid
TTITLE0=窗外飄著雪
TTITLE1=一生有意義
TTITLE2=最真的夢
TTITLE3=從什麼時候不再愛我
TTITLE4=為愛傷心為你痛
TTITLE5=掌聲響起來
TTITLE6=忘盡心中情
TTITLE7=逝去的諾言
TTITLE8=明月夜
TTITLE9=讓生命去等候
TTITLE10=愛太任性
TTITLE11=不要再來傷害我
TTITLE12=不裝飾你的夢
EXTD=
EXTT0=
EXTT1=
EXTT2=
EXTT3=
EXTT4=
EXTT5=
EXTT6=
EXTT7=
EXTT8=
EXTT9=
EXTT10=
EXTT11=
EXTT12=
PLAYORDER=
